<svg width="330" height="109" viewBox="0 0 330 109" fill="none" xmlns="http://www.w3.org/2000/svg">
<mask id="path-1-inside-1_424_42" fill="white">
<path d="M10.059 102L258.083 102V98.4771C258.095 98.3389 258.173 98.2093 258.301 98.1147C258.429 98.0201 258.597 97.9674 258.773 97.9674C258.948 97.9674 259.117 98.0201 259.245 98.1147C259.373 98.2093 259.451 98.3389 259.462 98.4771V102L319.962 102C321.244 102.001 322.479 101.616 323.415 100.924C324.35 100.231 324.917 99.2834 325 98.2727C323.172 98.2727 321.419 97.6991 320.127 96.6781C318.835 95.6571 318.109 94.2723 318.109 92.8284C318.109 91.3844 318.835 89.9997 320.127 88.9786C321.419 87.9576 323.172 87.384 325 87.384V82.3341C323.172 82.3341 321.419 81.7605 320.127 80.7395C318.835 79.7185 318.109 78.3337 318.109 76.8898C318.109 75.4459 318.835 74.0611 320.127 73.0401C321.419 72.0191 323.172 71.4455 325 71.4455V66.41C323.197 66.38 321.481 65.7932 320.219 64.7752C318.957 63.7572 318.25 62.3892 318.25 60.9645C318.25 59.5397 318.957 58.1717 320.219 57.1537C321.481 56.1358 323.197 55.5489 325 55.519V50.4835C323.172 50.4835 321.419 49.9099 320.127 48.8888C318.835 47.8678 318.109 46.4831 318.109 45.0391C318.109 43.5952 318.835 42.2104 320.127 41.1894C321.419 40.1684 323.172 39.5948 325 39.5948V34.5714C323.172 34.5714 321.419 33.9977 320.127 32.9767C318.835 31.9557 318.109 30.571 318.109 29.127C318.109 27.6831 318.835 26.2983 320.127 25.2773C321.419 24.2563 323.172 23.6827 325 23.6827V18.6472C323.197 18.6173 321.481 18.0304 320.219 17.0124C318.957 15.9945 318.25 14.6264 318.25 13.2017C318.25 11.777 318.957 10.409 320.219 9.39098C321.481 8.37301 323.197 7.78613 325 7.75619C324.925 6.7399 324.36 5.7848 323.423 5.08649C322.485 4.38818 321.245 3.99949 319.956 4L259.456 4V8.08804C259.445 8.22624 259.367 8.35579 259.239 8.45042C259.111 8.54506 258.942 8.59772 258.767 8.59772C258.591 8.59772 258.423 8.54506 258.295 8.45042C258.167 8.35579 258.089 8.22624 258.077 8.08804V4L10.0529 4C9.38947 3.99969 8.73248 4.10264 8.11945 4.30299C7.50644 4.50333 6.94934 4.79716 6.4801 5.16764C6.01086 5.53812 5.6387 5.97801 5.38474 6.4622C5.13077 6.94637 5 7.46535 5 7.98946V98.0105C5.0004 98.535 5.13156 99.0542 5.38608 99.5385C5.64056 100.023 6.01334 100.463 6.48315 100.833C6.95294 101.204 7.51059 101.498 8.12415 101.698C8.73767 101.898 9.39517 102.001 10.059 102ZM258.083 10.2836C258.077 10.209 258.09 10.1342 258.122 10.0638C258.154 9.99343 258.204 9.92896 258.268 9.87439C258.333 9.81982 258.411 9.77631 258.498 9.74657C258.585 9.71682 258.678 9.70148 258.773 9.70148C258.867 9.70148 258.961 9.71682 259.048 9.74657C259.135 9.77631 259.213 9.81982 259.277 9.87439C259.342 9.92896 259.392 9.99343 259.424 10.0638C259.455 10.1342 259.468 10.209 259.462 10.2836V15.4465C259.451 15.5847 259.373 15.7143 259.245 15.8089C259.117 15.9035 258.948 15.9562 258.773 15.9562C258.597 15.9562 258.429 15.9035 258.301 15.8089C258.173 15.7143 258.095 15.5847 258.083 15.4465V10.2836ZM258.083 17.6324C258.095 17.4942 258.173 17.3647 258.301 17.27C258.429 17.1754 258.597 17.1228 258.773 17.1228C258.948 17.1228 259.117 17.1754 259.245 17.27C259.373 17.3647 259.451 17.4942 259.462 17.6324V22.7882C259.468 22.8627 259.455 22.9375 259.424 23.0079C259.392 23.0783 259.342 23.1428 259.277 23.1973C259.213 23.2519 259.135 23.2954 259.048 23.3252C258.961 23.3549 258.867 23.3703 258.773 23.3703C258.678 23.3703 258.585 23.3549 258.498 23.3252C258.411 23.2954 258.333 23.2519 258.268 23.1973C258.204 23.1428 258.154 23.0783 258.122 23.0079C258.09 22.9375 258.077 22.8627 258.083 22.7882V17.6324ZM258.083 24.9837C258.077 24.9091 258.09 24.8343 258.122 24.7639C258.154 24.6936 258.204 24.6291 258.268 24.5745C258.333 24.5199 258.411 24.4764 258.498 24.4467C258.585 24.4169 258.678 24.4016 258.773 24.4016C258.867 24.4016 258.961 24.4169 259.048 24.4467C259.135 24.4764 259.213 24.5199 259.277 24.5745C259.342 24.6291 259.392 24.6936 259.424 24.7639C259.455 24.8343 259.468 24.9091 259.462 24.9837V30.1466C259.451 30.2848 259.373 30.4144 259.245 30.509C259.117 30.6037 258.948 30.6563 258.773 30.6563C258.597 30.6563 258.429 30.6037 258.301 30.509C258.173 30.4144 258.095 30.2848 258.083 30.1466V24.9837ZM258.083 32.3325C258.095 32.1943 258.173 32.0648 258.301 31.9702C258.429 31.8755 258.597 31.8229 258.773 31.8229C258.948 31.8229 259.117 31.8755 259.245 31.9702C259.373 32.0648 259.451 32.1943 259.462 32.3325V37.4955C259.468 37.5701 259.455 37.6449 259.424 37.7152C259.392 37.7856 259.342 37.8501 259.277 37.9047C259.213 37.9593 259.135 38.0028 259.048 38.0325C258.961 38.0622 258.867 38.0776 258.773 38.0776C258.678 38.0776 258.585 38.0622 258.498 38.0325C258.411 38.0028 258.333 37.9593 258.268 37.9047C258.204 37.8501 258.154 37.7856 258.122 37.7152C258.09 37.6449 258.077 37.5701 258.083 37.4955V32.3325ZM258.083 39.6838C258.095 39.5456 258.173 39.4161 258.301 39.3214C258.429 39.2268 258.597 39.1741 258.773 39.1741C258.948 39.1741 259.117 39.2268 259.245 39.3214C259.373 39.4161 259.451 39.5456 259.462 39.6838V44.8468C259.451 44.985 259.373 45.1145 259.245 45.2091C259.117 45.3038 258.948 45.3564 258.773 45.3564C258.597 45.3564 258.429 45.3038 258.301 45.2091C258.173 45.1145 258.095 44.985 258.083 44.8468V39.6838ZM258.083 47.0351C258.077 46.9605 258.09 46.8857 258.122 46.8153C258.154 46.7449 258.204 46.6805 258.268 46.6259C258.333 46.5713 258.411 46.5278 258.498 46.4981C258.585 46.4683 258.678 46.453 258.773 46.453C258.867 46.453 258.961 46.4683 259.048 46.4981C259.135 46.5278 259.213 46.5713 259.277 46.6259C259.342 46.6805 259.392 46.7449 259.424 46.8153C259.455 46.8857 259.468 46.9605 259.462 47.0351V52.198C259.451 52.3362 259.373 52.4658 259.245 52.5604C259.117 52.655 258.948 52.7077 258.773 52.7077C258.597 52.7077 258.429 52.655 258.301 52.5604C258.173 52.4658 258.095 52.3362 258.083 52.198V47.0351ZM258.083 54.3839C258.095 54.2457 258.173 54.1162 258.301 54.0215C258.429 53.9269 258.597 53.8743 258.773 53.8743C258.948 53.8743 259.117 53.9269 259.245 54.0215C259.373 54.1162 259.451 54.2457 259.462 54.3839V59.5469C259.468 59.6214 259.455 59.6962 259.424 59.7666C259.392 59.837 259.342 59.9015 259.277 59.9561C259.213 60.0106 259.135 60.0541 259.048 60.0839C258.961 60.1136 258.867 60.129 258.773 60.129C258.678 60.129 258.585 60.1136 258.498 60.0839C258.411 60.0541 258.333 60.0106 258.268 59.9561C258.204 59.9015 258.154 59.837 258.122 59.7666C258.09 59.6962 258.077 59.6214 258.083 59.5469V54.3839ZM258.083 61.7352C258.077 61.6606 258.09 61.5858 258.122 61.5154C258.154 61.445 258.204 61.3806 258.268 61.326C258.333 61.2714 258.411 61.2279 258.498 61.1982C258.585 61.1684 258.678 61.1531 258.773 61.1531C258.867 61.1531 258.961 61.1684 259.048 61.1982C259.135 61.2279 259.213 61.2714 259.277 61.326C259.342 61.3806 259.392 61.445 259.424 61.5154C259.455 61.5858 259.468 61.6606 259.462 61.7352V66.8981C259.451 67.0363 259.373 67.1659 259.245 67.2605C259.117 67.3551 258.948 67.4078 258.773 67.4078C258.597 67.4078 258.429 67.3551 258.301 67.2605C258.173 67.1659 258.095 67.0363 258.083 66.8981V61.7352ZM258.083 69.084C258.095 68.9458 258.173 68.8163 258.301 68.7217C258.429 68.627 258.597 68.5744 258.773 68.5744C258.948 68.5744 259.117 68.627 259.245 68.7217C259.373 68.8163 259.451 68.9458 259.462 69.084V74.2494C259.468 74.324 259.455 74.3988 259.424 74.4692C259.392 74.5395 259.342 74.604 259.277 74.6586C259.213 74.7132 259.135 74.7567 259.048 74.7864C258.961 74.8161 258.867 74.8315 258.773 74.8315C258.678 74.8315 258.585 74.8161 258.498 74.7864C258.411 74.7567 258.333 74.7132 258.268 74.6586C258.204 74.604 258.154 74.5395 258.122 74.4692C258.09 74.3988 258.077 74.324 258.083 74.2494V69.084ZM258.083 76.4353C258.095 76.2971 258.173 76.1676 258.301 76.0729C258.429 75.9783 258.597 75.9256 258.773 75.9256C258.948 75.9256 259.117 75.9783 259.245 76.0729C259.373 76.1676 259.451 76.2971 259.462 76.4353V81.5983C259.451 81.7365 259.373 81.866 259.245 81.9606C259.117 82.0553 258.948 82.1079 258.773 82.1079C258.597 82.1079 258.429 82.0553 258.301 81.9606C258.173 81.866 258.095 81.7365 258.083 81.5983V76.4353ZM258.083 83.7866C258.077 83.712 258.09 83.6372 258.122 83.5668C258.154 83.4964 258.204 83.432 258.268 83.3774C258.333 83.3228 258.411 83.2793 258.498 83.2496C258.585 83.2198 258.678 83.2045 258.773 83.2045C258.867 83.2045 258.961 83.2198 259.048 83.2496C259.135 83.2793 259.213 83.3228 259.277 83.3774C259.342 83.432 259.392 83.4964 259.424 83.5668C259.455 83.6372 259.468 83.712 259.462 83.7866V88.9495C259.451 89.0877 259.373 89.2173 259.245 89.3119C259.117 89.4065 258.948 89.4592 258.773 89.4592C258.597 89.4592 258.429 89.4065 258.301 89.3119C258.173 89.2173 258.095 89.0877 258.083 88.9495V83.7866ZM258.083 91.1354C258.095 90.9972 258.173 90.8677 258.301 90.773C258.429 90.6784 258.597 90.6258 258.773 90.6258C258.948 90.6258 259.117 90.6784 259.245 90.773C259.373 90.8677 259.451 90.9972 259.462 91.1354V96.2984C259.468 96.373 259.455 96.4477 259.424 96.5181C259.392 96.5885 259.342 96.653 259.277 96.7076C259.213 96.7621 259.135 96.8056 259.048 96.8354C258.961 96.8651 258.867 96.8805 258.773 96.8805C258.678 96.8805 258.585 96.8651 258.498 96.8354C258.411 96.8056 258.333 96.7621 258.268 96.7076C258.204 96.653 258.154 96.5885 258.122 96.5181C258.09 96.4477 258.077 96.373 258.083 96.2984V91.1354Z"/>
</mask>
<path d="M10.059 102L258.083 102V98.4771C258.095 98.3389 258.173 98.2093 258.301 98.1147C258.429 98.0201 258.597 97.9674 258.773 97.9674C258.948 97.9674 259.117 98.0201 259.245 98.1147C259.373 98.2093 259.451 98.3389 259.462 98.4771V102L319.962 102C321.244 102.001 322.479 101.616 323.415 100.924C324.35 100.231 324.917 99.2834 325 98.2727C323.172 98.2727 321.419 97.6991 320.127 96.6781C318.835 95.6571 318.109 94.2723 318.109 92.8284C318.109 91.3844 318.835 89.9997 320.127 88.9786C321.419 87.9576 323.172 87.384 325 87.384V82.3341C323.172 82.3341 321.419 81.7605 320.127 80.7395C318.835 79.7185 318.109 78.3337 318.109 76.8898C318.109 75.4459 318.835 74.0611 320.127 73.0401C321.419 72.0191 323.172 71.4455 325 71.4455V66.41C323.197 66.38 321.481 65.7932 320.219 64.7752C318.957 63.7572 318.25 62.3892 318.25 60.9645C318.25 59.5397 318.957 58.1717 320.219 57.1537C321.481 56.1358 323.197 55.5489 325 55.519V50.4835C323.172 50.4835 321.419 49.9099 320.127 48.8888C318.835 47.8678 318.109 46.4831 318.109 45.0391C318.109 43.5952 318.835 42.2104 320.127 41.1894C321.419 40.1684 323.172 39.5948 325 39.5948V34.5714C323.172 34.5714 321.419 33.9977 320.127 32.9767C318.835 31.9557 318.109 30.571 318.109 29.127C318.109 27.6831 318.835 26.2983 320.127 25.2773C321.419 24.2563 323.172 23.6827 325 23.6827V18.6472C323.197 18.6173 321.481 18.0304 320.219 17.0124C318.957 15.9945 318.25 14.6264 318.25 13.2017C318.25 11.777 318.957 10.409 320.219 9.39098C321.481 8.37301 323.197 7.78613 325 7.75619C324.925 6.7399 324.36 5.7848 323.423 5.08649C322.485 4.38818 321.245 3.99949 319.956 4L259.456 4V8.08804C259.445 8.22624 259.367 8.35579 259.239 8.45042C259.111 8.54506 258.942 8.59772 258.767 8.59772C258.591 8.59772 258.423 8.54506 258.295 8.45042C258.167 8.35579 258.089 8.22624 258.077 8.08804V4L10.0529 4C9.38947 3.99969 8.73248 4.10264 8.11945 4.30299C7.50644 4.50333 6.94934 4.79716 6.4801 5.16764C6.01086 5.53812 5.6387 5.97801 5.38474 6.4622C5.13077 6.94637 5 7.46535 5 7.98946V98.0105C5.0004 98.535 5.13156 99.0542 5.38608 99.5385C5.64056 100.023 6.01334 100.463 6.48315 100.833C6.95294 101.204 7.51059 101.498 8.12415 101.698C8.73767 101.898 9.39517 102.001 10.059 102ZM258.083 10.2836C258.077 10.209 258.09 10.1342 258.122 10.0638C258.154 9.99343 258.204 9.92896 258.268 9.87439C258.333 9.81982 258.411 9.77631 258.498 9.74657C258.585 9.71682 258.678 9.70148 258.773 9.70148C258.867 9.70148 258.961 9.71682 259.048 9.74657C259.135 9.77631 259.213 9.81982 259.277 9.87439C259.342 9.92896 259.392 9.99343 259.424 10.0638C259.455 10.1342 259.468 10.209 259.462 10.2836V15.4465C259.451 15.5847 259.373 15.7143 259.245 15.8089C259.117 15.9035 258.948 15.9562 258.773 15.9562C258.597 15.9562 258.429 15.9035 258.301 15.8089C258.173 15.7143 258.095 15.5847 258.083 15.4465V10.2836ZM258.083 17.6324C258.095 17.4942 258.173 17.3647 258.301 17.27C258.429 17.1754 258.597 17.1228 258.773 17.1228C258.948 17.1228 259.117 17.1754 259.245 17.27C259.373 17.3647 259.451 17.4942 259.462 17.6324V22.7882C259.468 22.8627 259.455 22.9375 259.424 23.0079C259.392 23.0783 259.342 23.1428 259.277 23.1973C259.213 23.2519 259.135 23.2954 259.048 23.3252C258.961 23.3549 258.867 23.3703 258.773 23.3703C258.678 23.3703 258.585 23.3549 258.498 23.3252C258.411 23.2954 258.333 23.2519 258.268 23.1973C258.204 23.1428 258.154 23.0783 258.122 23.0079C258.09 22.9375 258.077 22.8627 258.083 22.7882V17.6324ZM258.083 24.9837C258.077 24.9091 258.09 24.8343 258.122 24.7639C258.154 24.6936 258.204 24.6291 258.268 24.5745C258.333 24.5199 258.411 24.4764 258.498 24.4467C258.585 24.4169 258.678 24.4016 258.773 24.4016C258.867 24.4016 258.961 24.4169 259.048 24.4467C259.135 24.4764 259.213 24.5199 259.277 24.5745C259.342 24.6291 259.392 24.6936 259.424 24.7639C259.455 24.8343 259.468 24.9091 259.462 24.9837V30.1466C259.451 30.2848 259.373 30.4144 259.245 30.509C259.117 30.6037 258.948 30.6563 258.773 30.6563C258.597 30.6563 258.429 30.6037 258.301 30.509C258.173 30.4144 258.095 30.2848 258.083 30.1466V24.9837ZM258.083 32.3325C258.095 32.1943 258.173 32.0648 258.301 31.9702C258.429 31.8755 258.597 31.8229 258.773 31.8229C258.948 31.8229 259.117 31.8755 259.245 31.9702C259.373 32.0648 259.451 32.1943 259.462 32.3325V37.4955C259.468 37.5701 259.455 37.6449 259.424 37.7152C259.392 37.7856 259.342 37.8501 259.277 37.9047C259.213 37.9593 259.135 38.0028 259.048 38.0325C258.961 38.0622 258.867 38.0776 258.773 38.0776C258.678 38.0776 258.585 38.0622 258.498 38.0325C258.411 38.0028 258.333 37.9593 258.268 37.9047C258.204 37.8501 258.154 37.7856 258.122 37.7152C258.09 37.6449 258.077 37.5701 258.083 37.4955V32.3325ZM258.083 39.6838C258.095 39.5456 258.173 39.4161 258.301 39.3214C258.429 39.2268 258.597 39.1741 258.773 39.1741C258.948 39.1741 259.117 39.2268 259.245 39.3214C259.373 39.4161 259.451 39.5456 259.462 39.6838V44.8468C259.451 44.985 259.373 45.1145 259.245 45.2091C259.117 45.3038 258.948 45.3564 258.773 45.3564C258.597 45.3564 258.429 45.3038 258.301 45.2091C258.173 45.1145 258.095 44.985 258.083 44.8468V39.6838ZM258.083 47.0351C258.077 46.9605 258.09 46.8857 258.122 46.8153C258.154 46.7449 258.204 46.6805 258.268 46.6259C258.333 46.5713 258.411 46.5278 258.498 46.4981C258.585 46.4683 258.678 46.453 258.773 46.453C258.867 46.453 258.961 46.4683 259.048 46.4981C259.135 46.5278 259.213 46.5713 259.277 46.6259C259.342 46.6805 259.392 46.7449 259.424 46.8153C259.455 46.8857 259.468 46.9605 259.462 47.0351V52.198C259.451 52.3362 259.373 52.4658 259.245 52.5604C259.117 52.655 258.948 52.7077 258.773 52.7077C258.597 52.7077 258.429 52.655 258.301 52.5604C258.173 52.4658 258.095 52.3362 258.083 52.198V47.0351ZM258.083 54.3839C258.095 54.2457 258.173 54.1162 258.301 54.0215C258.429 53.9269 258.597 53.8743 258.773 53.8743C258.948 53.8743 259.117 53.9269 259.245 54.0215C259.373 54.1162 259.451 54.2457 259.462 54.3839V59.5469C259.468 59.6214 259.455 59.6962 259.424 59.7666C259.392 59.837 259.342 59.9015 259.277 59.9561C259.213 60.0106 259.135 60.0541 259.048 60.0839C258.961 60.1136 258.867 60.129 258.773 60.129C258.678 60.129 258.585 60.1136 258.498 60.0839C258.411 60.0541 258.333 60.0106 258.268 59.9561C258.204 59.9015 258.154 59.837 258.122 59.7666C258.09 59.6962 258.077 59.6214 258.083 59.5469V54.3839ZM258.083 61.7352C258.077 61.6606 258.09 61.5858 258.122 61.5154C258.154 61.445 258.204 61.3806 258.268 61.326C258.333 61.2714 258.411 61.2279 258.498 61.1982C258.585 61.1684 258.678 61.1531 258.773 61.1531C258.867 61.1531 258.961 61.1684 259.048 61.1982C259.135 61.2279 259.213 61.2714 259.277 61.326C259.342 61.3806 259.392 61.445 259.424 61.5154C259.455 61.5858 259.468 61.6606 259.462 61.7352V66.8981C259.451 67.0363 259.373 67.1659 259.245 67.2605C259.117 67.3551 258.948 67.4078 258.773 67.4078C258.597 67.4078 258.429 67.3551 258.301 67.2605C258.173 67.1659 258.095 67.0363 258.083 66.8981V61.7352ZM258.083 69.084C258.095 68.9458 258.173 68.8163 258.301 68.7217C258.429 68.627 258.597 68.5744 258.773 68.5744C258.948 68.5744 259.117 68.627 259.245 68.7217C259.373 68.8163 259.451 68.9458 259.462 69.084V74.2494C259.468 74.324 259.455 74.3988 259.424 74.4692C259.392 74.5395 259.342 74.604 259.277 74.6586C259.213 74.7132 259.135 74.7567 259.048 74.7864C258.961 74.8161 258.867 74.8315 258.773 74.8315C258.678 74.8315 258.585 74.8161 258.498 74.7864C258.411 74.7567 258.333 74.7132 258.268 74.6586C258.204 74.604 258.154 74.5395 258.122 74.4692C258.09 74.3988 258.077 74.324 258.083 74.2494V69.084ZM258.083 76.4353C258.095 76.2971 258.173 76.1676 258.301 76.0729C258.429 75.9783 258.597 75.9256 258.773 75.9256C258.948 75.9256 259.117 75.9783 259.245 76.0729C259.373 76.1676 259.451 76.2971 259.462 76.4353V81.5983C259.451 81.7365 259.373 81.866 259.245 81.9606C259.117 82.0553 258.948 82.1079 258.773 82.1079C258.597 82.1079 258.429 82.0553 258.301 81.9606C258.173 81.866 258.095 81.7365 258.083 81.5983V76.4353ZM258.083 83.7866C258.077 83.712 258.09 83.6372 258.122 83.5668C258.154 83.4964 258.204 83.432 258.268 83.3774C258.333 83.3228 258.411 83.2793 258.498 83.2496C258.585 83.2198 258.678 83.2045 258.773 83.2045C258.867 83.2045 258.961 83.2198 259.048 83.2496C259.135 83.2793 259.213 83.3228 259.277 83.3774C259.342 83.432 259.392 83.4964 259.424 83.5668C259.455 83.6372 259.468 83.712 259.462 83.7866V88.9495C259.451 89.0877 259.373 89.2173 259.245 89.3119C259.117 89.4065 258.948 89.4592 258.773 89.4592C258.597 89.4592 258.429 89.4065 258.301 89.3119C258.173 89.2173 258.095 89.0877 258.083 88.9495V83.7866ZM258.083 91.1354C258.095 90.9972 258.173 90.8677 258.301 90.773C258.429 90.6784 258.597 90.6258 258.773 90.6258C258.948 90.6258 259.117 90.6784 259.245 90.773C259.373 90.8677 259.451 90.9972 259.462 91.1354V96.2984C259.468 96.373 259.455 96.4477 259.424 96.5181C259.392 96.5885 259.342 96.653 259.277 96.7076C259.213 96.7621 259.135 96.8056 259.048 96.8354C258.961 96.8651 258.867 96.8805 258.773 96.8805C258.678 96.8805 258.585 96.8651 258.498 96.8354C258.411 96.8056 258.333 96.7621 258.268 96.7076C258.204 96.653 258.154 96.5885 258.122 96.5181C258.09 96.4477 258.077 96.373 258.083 96.2984V91.1354Z" fill="white" stroke="#98A8AA" stroke-opacity="0.2" stroke-width="2" mask="url(#path-1-inside-1_424_42)"/>
</svg>
