<svg width="24" height="24" viewBox="0 0 24 24" fill="none" xmlns="http://www.w3.org/2000/svg">
<g id="solar:chat-dots-bold-duotone">
<path id="Vector" opacity="0.5" d="M13.629 20.472L13.087 21.388C12.604 22.204 11.397 22.204 10.913 21.388L10.371 20.472C9.951 19.762 9.741 19.406 9.403 19.21C9.065 19.013 8.64 19.006 7.79 18.991C6.534 18.97 5.747 18.893 5.087 18.619C4.48037 18.3677 3.92917 17.9994 3.46487 17.5351C3.00057 17.0708 2.63227 16.5196 2.381 15.913C2 14.995 2 13.83 2 11.5V10.5C2 7.227 2 5.59 2.737 4.388C3.14904 3.7152 3.71445 3.14945 4.387 2.737C5.59 2 7.228 2 10.5 2H13.5C16.773 2 18.41 2 19.613 2.737C20.2854 3.14917 20.8508 3.71456 21.263 4.387C22 5.59 22 7.228 22 10.5V11.5C22 13.83 22 14.995 21.62 15.913C21.3686 16.5197 21.0002 17.071 20.5357 17.5353C20.0712 17.9996 19.5198 18.3678 18.913 18.619C18.253 18.893 17.466 18.969 16.21 18.991C15.36 19.006 14.935 19.013 14.597 19.21C14.259 19.406 14.049 19.761 13.629 20.472Z" fill="#3C5A5D"/>
<path id="Vector_2" d="M17 11C17 11.2652 16.8946 11.5196 16.7071 11.7071C16.5196 11.8946 16.2652 12 16 12C15.7348 12 15.4804 11.8946 15.2929 11.7071C15.1054 11.5196 15 11.2652 15 11C15 10.7348 15.1054 10.4804 15.2929 10.2929C15.4804 10.1054 15.7348 10 16 10C16.2652 10 16.5196 10.1054 16.7071 10.2929C16.8946 10.4804 17 10.7348 17 11ZM13 11C13 11.2652 12.8946 11.5196 12.7071 11.7071C12.5196 11.8946 12.2652 12 12 12C11.7348 12 11.4804 11.8946 11.2929 11.7071C11.1054 11.5196 11 11.2652 11 11C11 10.7348 11.1054 10.4804 11.2929 10.2929C11.4804 10.1054 11.7348 10 12 10C12.2652 10 12.5196 10.1054 12.7071 10.2929C12.8946 10.4804 13 10.7348 13 11ZM9 11C9 11.2652 8.89464 11.5196 8.70711 11.7071C8.51957 11.8946 8.26522 12 8 12C7.73478 12 7.48043 11.8946 7.29289 11.7071C7.10536 11.5196 7 11.2652 7 11C7 10.7348 7.10536 10.4804 7.29289 10.2929C7.48043 10.1054 7.73478 10 8 10C8.26522 10 8.51957 10.1054 8.70711 10.2929C8.89464 10.4804 9 10.7348 9 11Z" fill="#3C5A5D"/>
</g>
</svg>
