<svg width="20" height="20" viewBox="0 0 20 20" fill="none" xmlns="http://www.w3.org/2000/svg">
<path d="M10 13.333C11.3807 13.333 12.5 12.2137 12.5 10.833C12.5 9.4523 11.3807 8.33301 10 8.33301C8.61929 8.33301 7.5 9.4523 7.5 10.833C7.5 12.2137 8.61929 13.333 10 13.333Z" stroke="#3C5A5D" stroke-width="1.5"/>
<path d="M8.14829 17.5H11.8516C14.4525 17.5 15.7533 17.5 16.6875 16.8875C17.0905 16.6234 17.4377 16.2824 17.7091 15.8842C18.3333 14.9675 18.3333 13.69 18.3333 11.1367C18.3333 8.58254 18.3333 7.30587 17.7091 6.38921C17.4377 5.99096 17.0905 5.65004 16.6875 5.38587C16.0875 4.99171 15.3358 4.85087 14.185 4.80087C13.6358 4.80087 13.1633 4.39254 13.0558 3.86337C12.9736 3.47576 12.7602 3.1284 12.4515 2.88C12.1428 2.63159 11.7578 2.49738 11.3616 2.50004H8.63829C7.81496 2.50004 7.10579 3.07087 6.94413 3.86337C6.83663 4.39254 6.36413 4.80087 5.81496 4.80087C4.66496 4.85087 3.91329 4.99254 3.31246 5.38587C2.90964 5.65009 2.56277 5.99102 2.29163 6.38921C1.66663 7.30587 1.66663 8.58254 1.66663 11.1367C1.66663 13.69 1.66663 14.9667 2.29079 15.8842C2.56079 16.2809 2.90746 16.6217 3.31246 16.8875C4.24663 17.5 5.54746 17.5 8.14829 17.5Z" stroke="#3C5A5D" stroke-width="1.5"/>
<path d="M15.8333 8.33301H15" stroke="#3C5A5D" stroke-width="1.5" stroke-linecap="round"/>
</svg>
