<svg width="24" height="24" viewBox="0 0 24 24" fill="none" xmlns="http://www.w3.org/2000/svg">
<g id="solar:bag-4-bold-duotone">
<path id="Vector" opacity="0.5" d="M4.03498 11.573C4.49698 9.264 4.72798 8.11 5.55698 7.43C6.38698 6.75 7.56398 6.75 9.91898 6.75H14.081C16.436 6.75 17.613 6.75 18.442 7.43C19.272 8.11 19.502 9.264 19.965 11.573L20.565 14.573C21.229 17.893 21.561 19.553 20.661 20.652C19.761 21.75 18.067 21.75 14.681 21.75H9.31998C5.93398 21.75 4.23998 21.75 3.33998 20.652C2.43998 19.554 2.77198 17.894 3.43598 14.573L4.03498 11.573Z" fill="#707F81" fill-opacity="0.5"/>
<path id="Vector_2" d="M15 10.75C15.5523 10.75 16 10.3023 16 9.75C16 9.19772 15.5523 8.75 15 8.75C14.4477 8.75 14 9.19772 14 9.75C14 10.3023 14.4477 10.75 15 10.75Z" fill="#707F81" fill-opacity="0.5"/>
<path id="Vector_3" d="M9 10.75C9.55228 10.75 10 10.3023 10 9.75C10 9.19772 9.55228 8.75 9 8.75C8.44772 8.75 8 9.19772 8 9.75C8 10.3023 8.44772 10.75 9 10.75Z" fill="#707F81" fill-opacity="0.5"/>
<path id="Vector_4" d="M9.75 5.75C9.75 5.15326 9.98705 4.58097 10.409 4.15901C10.831 3.73705 11.4033 3.5 12 3.5C12.5967 3.5 13.169 3.73705 13.591 4.15901C14.0129 4.58097 14.25 5.15326 14.25 5.75V6.75H14.681C15.058 6.75 15.414 6.75 15.75 6.752V5.75C15.75 4.75544 15.3549 3.80161 14.6517 3.09835C13.9484 2.39509 12.9946 2 12 2C11.0054 2 10.0516 2.39509 9.34835 3.09835C8.64509 3.80161 8.25 4.75544 8.25 5.75V6.752C8.586 6.75 8.942 6.75 9.319 6.75H9.75V5.75Z" fill="#707F81" fill-opacity="0.5"/>
</g>
</svg>
