<svg width="56" height="56" viewBox="0 0 56 56" fill="none" xmlns="http://www.w3.org/2000/svg">
<path d="M4 28C4 14.745 14.745 4 28 4C41.255 4 52 14.745 52 28C52 41.255 41.255 52 28 52C14.745 52 4 41.255 4 28ZM28.573 29.744C31.547 30.476 32.438 31.446 32.438 33.084C32.438 34.786 31.293 36.074 28.573 36.281V29.744ZM26.776 26.071C24.232 25.434 23.277 24.369 23.277 22.921C23.277 21.474 24.486 20.154 26.777 19.868L26.776 26.071ZM28.573 26.5V19.868C30.609 20.122 32.04 21.283 32.247 23.288H35.555C35.428 19.678 32.549 17.292 28.573 16.973V14.286H26.776V16.973C22.768 17.276 19.906 19.629 19.906 23.192C19.906 26.42 22.085 28.234 26.124 29.172L26.776 29.331V36.265C24.216 35.995 23.007 34.627 22.721 32.766H19.429C19.539 36.583 22.737 38.857 26.776 39.16V41.831H28.573V39.16C32.629 38.873 35.81 36.663 35.81 32.766C35.81 29.379 33.52 27.661 29.337 26.691L28.573 26.5Z" fill="#1ED760"/>
</svg>
