<svg width="11" height="11" viewBox="0 0 11 11" fill="none" xmlns="http://www.w3.org/2000/svg">
<g clip-path="url(#clip0_3_291)">
<path d="M9.78726 1.21271C9.61993 1.04535 9.42127 0.912588 9.20263 0.822011C8.98398 0.731434 8.74964 0.684814 8.51298 0.684814C8.27631 0.684814 8.04197 0.731434 7.82333 0.822011C7.60468 0.912588 7.40602 1.04535 7.23869 1.21271L1.82669 6.62471C1.56966 6.88191 1.38637 7.20338 1.29594 7.55558L0.697819 9.88346C0.682986 9.94138 0.683517 10.0022 0.699359 10.0598C0.715202 10.1175 0.745807 10.17 0.788154 10.2122C0.830501 10.2544 0.883125 10.2848 0.940829 10.3005C0.998533 10.3161 1.05932 10.3165 1.11719 10.3015L3.44438 9.70402C3.79664 9.61376 4.11816 9.43044 4.37526 9.17327L9.78726 3.76127C9.95462 3.59394 10.0874 3.39528 10.178 3.17664C10.2685 2.958 10.3152 2.72365 10.3152 2.48699C10.3152 2.25033 10.2685 2.01598 10.178 1.79734C10.0874 1.5787 9.95462 1.38004 9.78726 1.21271ZM7.72476 1.69877C7.93381 1.48972 8.21734 1.37228 8.51298 1.37228C8.80861 1.37228 9.09215 1.48972 9.30119 1.69877C9.51024 1.90782 9.62769 2.19135 9.62769 2.48699C9.62769 2.78263 9.51024 3.06616 9.30119 3.27521L8.76563 3.81077L7.18919 2.23433L7.72476 1.69877ZM6.70313 2.7204L8.27957 4.29683L3.88919 8.68721C3.71895 8.85712 3.50621 8.97821 3.27319 9.03783L1.50838 9.49158L1.96213 7.72677C2.02131 7.49357 2.14246 7.28072 2.31276 7.11077L6.70313 2.7204Z" fill="#F6F6F6"/>
</g>
<defs>
<clipPath id="clip0_3_291">
<rect width="11" height="11" fill="white"/>
</clipPath>
</defs>
</svg>
