<svg width="24" height="24" viewBox="0 0 24 24" fill="none" xmlns="http://www.w3.org/2000/svg">
<g id="solar:eye-closed-broken">
<path id="Vector" d="M2.68999 6.70542C2.61175 6.52242 2.46402 6.37799 2.2793 6.30392C2.09457 6.22984 1.88799 6.23218 1.70499 6.31042C1.52199 6.38866 1.37757 6.53639 1.30349 6.72111C1.22941 6.90583 1.23175 7.11242 1.30999 7.29542L2.68999 6.70542ZM9.04099 13.7384C9.09696 13.6559 9.13592 13.5631 9.15559 13.4653C9.17526 13.3676 9.17525 13.2669 9.15555 13.1692C9.13584 13.0714 9.09685 12.9786 9.04086 12.8961C8.98486 12.8136 8.91297 12.7431 8.82941 12.6887C8.74584 12.6344 8.65227 12.5972 8.55417 12.5794C8.45607 12.5616 8.35541 12.5636 8.25807 12.5851C8.16073 12.6067 8.06866 12.6475 7.98726 12.705C7.90586 12.7626 7.83676 12.8358 7.78399 12.9204L9.04099 13.7384ZM6.37099 15.0914C6.31728 15.174 6.28036 15.2664 6.26235 15.3633C6.24434 15.4601 6.24558 15.5596 6.26601 15.656C6.30727 15.8506 6.42417 16.0209 6.59099 16.1294C6.75781 16.2379 6.96089 16.2757 7.15555 16.2344C7.25194 16.214 7.34336 16.1748 7.42459 16.119C7.50582 16.0632 7.57528 15.992 7.62899 15.9094L6.37099 15.0914ZM22.69 7.29542C22.7598 7.11425 22.7567 6.91307 22.6812 6.73417C22.6058 6.55528 22.4639 6.41262 22.2854 6.3362C22.1069 6.25978 21.9057 6.25555 21.7242 6.32441C21.5427 6.39327 21.3949 6.52985 21.312 6.70542L22.69 7.29542ZM19.97 13.1604C20.0387 13.2341 20.1215 13.2932 20.2134 13.3342C20.3054 13.3752 20.4048 13.3972 20.5055 13.399C20.6062 13.4008 20.7062 13.3823 20.7996 13.3445C20.893 13.3068 20.9778 13.2507 21.049 13.1795C21.1202 13.1082 21.1764 13.0234 21.2141 12.93C21.2518 12.8366 21.2704 12.7366 21.2686 12.6359C21.2668 12.5352 21.2448 12.4359 21.2038 12.3439C21.1628 12.2519 21.1037 12.1691 21.03 12.1004L19.97 13.1604ZM11.25 16.5004C11.25 16.6993 11.329 16.8901 11.4697 17.0307C11.6103 17.1714 11.8011 17.2504 12 17.2504C12.1989 17.2504 12.3897 17.1714 12.5303 17.0307C12.671 16.8901 12.75 16.6993 12.75 16.5004H11.25ZM16.371 15.9094C16.4795 16.0762 16.6498 16.1931 16.8444 16.2344C17.0391 16.2757 17.2422 16.2379 17.409 16.1294C17.5758 16.0209 17.6927 15.8506 17.734 15.656C17.7752 15.4613 17.7375 15.2582 17.629 15.0914L16.371 15.9094ZM5.53099 11.6594C5.66334 11.5171 5.73529 11.329 5.73168 11.1347C5.72807 10.9404 5.64918 10.7551 5.51164 10.6178C5.37409 10.4805 5.18863 10.402 4.99432 10.3987C4.80002 10.3955 4.61204 10.4678 4.46999 10.6004L5.53099 11.6594ZM2.96999 12.0994C2.83751 12.2416 2.76539 12.4296 2.76881 12.6239C2.77224 12.8182 2.85095 13.0036 2.98837 13.141C3.12578 13.2785 3.31117 13.3572 3.50547 13.3606C3.69977 13.364 3.88781 13.2919 4.02999 13.1594L2.96999 12.0994ZM12 13.2504C8.77599 13.2504 6.46099 11.6454 4.92499 9.99042C4.27971 9.29184 3.70927 8.52768 3.22299 7.71042C3.03962 7.403 2.87044 7.08734 2.71599 6.76442C2.70854 6.74813 2.70121 6.7318 2.69399 6.71542L2.68999 6.70542L2.68899 6.70442L1.99999 7.00042C1.7695 7.09795 1.5395 7.19561 1.30999 7.29542L1.31099 7.29642L1.31199 7.29942L1.31499 7.30542C1.32795 7.33492 1.34129 7.36425 1.35499 7.39342C1.53138 7.76356 1.72493 8.12529 1.93499 8.47742C2.34499 9.16742 2.96899 10.0874 3.82499 11.0104C5.53999 12.8554 8.22399 14.7504 12 14.7504V13.2504ZM15.313 12.6314C14.343 13.0144 13.242 13.2504 12 13.2504V14.7504C13.438 14.7504 14.725 14.4744 15.862 14.0274L15.313 12.6314ZM7.78399 12.9204L6.37099 15.0914L7.62899 15.9084L9.04099 13.7384L7.78399 12.9204ZM22 7.00042L21.31 6.70442H21.311V6.70642L21.304 6.71942C21.2559 6.82483 21.2056 6.92919 21.153 7.03242C20.4695 8.35678 19.5683 9.55683 18.487 10.5824L19.513 11.6764C20.8006 10.4551 21.8581 9.0121 22.635 7.41642L22.674 7.33142L22.684 7.30742L22.688 7.30042V7.29742L22.689 7.29642L22 7.00042ZM18.487 10.5824C17.627 11.3884 16.574 12.1344 15.313 12.6314L15.862 14.0274C17.335 13.4474 18.547 12.5834 19.513 11.6764L18.487 10.5824ZM18.47 11.6594L19.97 13.1604L21.03 12.0994L19.53 10.5994L18.47 11.6594ZM11.25 14.0004V16.5004H12.75V14.0004H11.25ZM14.959 13.7384L16.371 15.9094L17.629 15.0914L16.216 12.9204L14.959 13.7384ZM4.46899 10.5984L2.96899 12.0984L4.02999 13.1594L5.52999 11.6604L4.46899 10.5984Z" fill="#0C1415"/>
</g>
</svg>
