<svg width="24" height="24" viewBox="0 0 24 24" fill="none" xmlns="http://www.w3.org/2000/svg">
<path d="M12.75 6C12.75 5.80109 12.671 5.61032 12.5303 5.46967C12.3897 5.32902 12.1989 5.25 12 5.25C11.8011 5.25 11.6103 5.32902 11.4697 5.46967C11.329 5.61032 11.25 5.80109 11.25 6V10C11.25 10.1989 11.329 10.3897 11.4697 10.5303C11.6103 10.671 11.8011 10.75 12 10.75C12.1989 10.75 12.3897 10.671 12.5303 10.5303C12.671 10.3897 12.75 10.1989 12.75 10V6Z" fill="#3C5A5D"/>
<path fill-rule="evenodd" clip-rule="evenodd" d="M4.25 9C4.25 6.94457 5.06652 4.97333 6.51993 3.51992C7.97333 2.06652 9.94458 1.25 12 1.25C14.0554 1.25 16.0267 2.06652 17.4801 3.51992C18.9335 4.97333 19.75 6.94457 19.75 9V9.704C19.75 10.401 19.956 11.082 20.343 11.662L21.491 13.385C22.825 15.385 21.807 18.103 19.488 18.735C18.733 18.941 17.971 19.115 17.204 19.258L17.202 19.263C16.433 21.315 14.378 22.75 12 22.75C9.622 22.75 7.567 21.315 6.798 19.263L6.796 19.258C6.02782 19.1151 5.26584 18.9406 4.512 18.735C2.193 18.103 1.175 15.385 2.509 13.385L3.657 11.662C4.04361 11.0822 4.24994 10.4009 4.25 9.704V9ZM8.623 19.537C10.866 19.805 13.133 19.805 15.376 19.537C14.666 20.558 13.429 21.25 12 21.25C10.571 21.25 9.334 20.558 8.623 19.537ZM12 2.75C10.3424 2.75 8.75269 3.40848 7.58059 4.58058C6.40848 5.75269 5.75 7.3424 5.75 9V9.704C5.74991 10.697 5.4559 11.6678 4.905 12.494L3.757 14.217C3.57934 14.4835 3.46754 14.7883 3.43083 15.1065C3.39412 15.4246 3.43355 15.747 3.54586 16.0469C3.65818 16.3468 3.84016 16.6157 4.07681 16.8315C4.31347 17.0473 4.59801 17.2038 4.907 17.288C9.5512 18.5546 14.4498 18.5546 19.094 17.288C19.403 17.2039 19.6875 17.0476 19.9242 16.8319C20.1608 16.6162 20.3428 16.3473 20.4552 16.0475C20.5675 15.7476 20.6069 15.4254 20.5702 15.1073C20.5335 14.7892 20.4217 14.4844 20.244 14.218L19.094 12.494C18.5435 11.6677 18.2498 10.6969 18.25 9.704V9C18.25 7.3424 17.5915 5.75269 16.4194 4.58058C15.2473 3.40848 13.6576 2.75 12 2.75Z" fill="#3C5A5D"/>
</svg>
