<svg width="24" height="24" viewBox="0 0 24 24" fill="none" xmlns="http://www.w3.org/2000/svg">
<path d="M3 10.417C3 7.219 3 5.62 3.378 5.082C3.755 4.545 5.258 4.03 8.265 3.001L8.838 2.805C10.405 2.268 11.188 2 12 2C12.811 2 13.595 2.268 15.162 2.805L15.735 3.001C18.742 4.03 20.245 4.545 20.622 5.082C21 5.62 21 7.22 21 10.417V11.991C21 17.629 16.761 20.366 14.101 21.527C13.38 21.842 13.02 22 12 22C10.98 22 10.62 21.842 9.899 21.527C7.239 20.365 3 17.63 3 11.991V10.417Z" stroke="#3C5A5D" stroke-width="1.5"/>
<path d="M12 8V12" stroke="#3C5A5D" stroke-width="1.5" stroke-linecap="round"/>
<path d="M12 16C12.5523 16 13 15.5523 13 15C13 14.4477 12.5523 14 12 14C11.4477 14 11 14.4477 11 15C11 15.5523 11.4477 16 12 16Z" fill="#3C5A5D"/>
</svg>
