<svg width="24" height="24" viewBox="0 0 24 24" fill="none" xmlns="http://www.w3.org/2000/svg">
<path d="M9.17 3.99952C9.3766 3.41399 9.75974 2.90695 10.2666 2.54831C10.7735 2.18967 11.3791 1.99707 12 1.99707C12.6209 1.99707 13.2265 2.18967 13.7334 2.54831C14.2403 2.90695 14.6234 3.41399 14.83 3.99952M20.5 5.99952H3.5M18.833 8.49952L18.373 15.3995C18.196 18.0535 18.108 19.3805 17.243 20.1895C16.378 20.9995 15.047 20.9995 12.387 20.9995H11.613C8.953 20.9995 7.622 20.9995 6.757 20.1895C5.892 19.3805 5.803 18.0535 5.627 15.3995L5.167 8.49952M9.5 10.9995L10 15.9995M14.5 10.9995L14 15.9995" stroke="#3C5A5D" stroke-width="1.5" stroke-linecap="round"/>
</svg>
