<svg width="16" height="16" viewBox="0 0 16 16" fill="none" xmlns="http://www.w3.org/2000/svg">
<path d="M15 3.625H7.125M9.75 12.375H1.875" stroke="#F6F6F6" stroke-width="2" stroke-linecap="round" stroke-linejoin="round"/>
<path d="M12.375 15C13.8247 15 15 13.8247 15 12.375C15 10.9253 13.8247 9.75 12.375 9.75C10.9253 9.75 9.75 10.9253 9.75 12.375C9.75 13.8247 10.9253 15 12.375 15Z" stroke="#F6F6F6" stroke-width="2" stroke-linecap="round" stroke-linejoin="round"/>
<path d="M3.625 6.25C5.07475 6.25 6.25 5.07475 6.25 3.625C6.25 2.17525 5.07475 1 3.625 1C2.17525 1 1 2.17525 1 3.625C1 5.07475 2.17525 6.25 3.625 6.25Z" stroke="#F6F6F6" stroke-width="2" stroke-linecap="round" stroke-linejoin="round"/>
</svg>
