<svg width="24" height="24" viewBox="0 0 24 24" fill="none" xmlns="http://www.w3.org/2000/svg">
<path d="M14.005 4H9.99499C6.21499 4 4.32499 4 3.14999 5.172C2.33999 5.978 2.08899 7.123 2.00999 8.989C1.99499 9.359 1.98699 9.545 2.05599 9.668C2.12599 9.791 2.40099 9.946 2.95299 10.254C3.26392 10.4273 3.52292 10.6806 3.70323 10.9875C3.88353 11.2945 3.9786 11.644 3.9786 12C3.9786 12.356 3.88353 12.7055 3.70323 13.0125C3.52292 13.3194 3.26392 13.5727 2.95299 13.746C2.40099 14.055 2.12499 14.209 2.05599 14.332C1.98699 14.455 1.99499 14.64 2.01099 15.01C2.08899 16.877 2.34099 18.022 3.14999 18.828C4.32399 20 6.21399 20 9.99499 20H14.005C17.785 20 19.675 20 20.85 18.828C21.66 18.022 21.911 16.877 21.99 15.011C22.005 14.641 22.013 14.455 21.944 14.332C21.874 14.209 21.599 14.055 21.047 13.746C20.7361 13.5727 20.4771 13.3194 20.2967 13.0125C20.1164 12.7055 20.0214 12.356 20.0214 12C20.0214 11.644 20.1164 11.2945 20.2967 10.9875C20.4771 10.6806 20.7361 10.4273 21.047 10.254C21.599 9.946 21.875 9.791 21.944 9.668C22.013 9.545 22.005 9.36 21.989 8.989C21.911 7.123 21.659 5.979 20.85 5.172C19.676 4 17.786 4 14.005 4Z" stroke="#3C5A5D" stroke-width="1.5"/>
<path d="M9 15L15 9" stroke="#3C5A5D" stroke-width="1.5" stroke-linecap="round"/>
<path d="M15.5 14.5C15.5 14.7652 15.3946 15.0196 15.2071 15.2071C15.0196 15.3946 14.7652 15.5 14.5 15.5C14.2348 15.5 13.9804 15.3946 13.7929 15.2071C13.6054 15.0196 13.5 14.7652 13.5 14.5C13.5 14.2348 13.6054 13.9804 13.7929 13.7929C13.9804 13.6054 14.2348 13.5 14.5 13.5C14.7652 13.5 15.0196 13.6054 15.2071 13.7929C15.3946 13.9804 15.5 14.2348 15.5 14.5ZM10.5 9.5C10.5 9.76522 10.3946 10.0196 10.2071 10.2071C10.0196 10.3946 9.76522 10.5 9.5 10.5C9.23478 10.5 8.98043 10.3946 8.79289 10.2071C8.60536 10.0196 8.5 9.76522 8.5 9.5C8.5 9.23478 8.60536 8.98043 8.79289 8.79289C8.98043 8.60536 9.23478 8.5 9.5 8.5C9.76522 8.5 10.0196 8.60536 10.2071 8.79289C10.3946 8.98043 10.5 9.23478 10.5 9.5Z" fill="#3C5A5D"/>
</svg>
