<svg width="24" height="24" viewBox="0 0 24 24" fill="none" xmlns="http://www.w3.org/2000/svg">
<path d="M5.84301 4.56789C7.47595 2.93495 9.69069 2.01758 12 2.01758C14.3093 2.01758 16.5241 2.93495 18.157 4.56789C19.79 6.20083 20.7073 8.41557 20.7073 10.7249C20.7073 13.0342 19.79 15.249 18.157 16.8819L16.97 18.0559C16.095 18.9139 14.96 20.0179 13.564 21.3679C13.1444 21.7736 12.5836 22.0004 12 22.0004C11.4164 22.0004 10.8556 21.7736 10.436 21.3679L6.94501 17.9719C6.50501 17.5409 6.13901 17.1779 5.84301 16.8819C5.03443 16.0734 4.39302 15.1135 3.95541 14.0571C3.51781 13.0006 3.29257 11.8684 3.29257 10.7249C3.29257 9.58142 3.51781 8.44914 3.95541 7.39272C4.39302 6.3363 5.03443 5.37642 5.84301 4.56789ZM17.096 5.62789C16.4267 4.95861 15.632 4.42772 14.7575 4.06553C13.883 3.70334 12.9457 3.51695 11.9992 3.517C11.0526 3.51704 10.1153 3.70353 9.24085 4.0658C8.36636 4.42807 7.5718 4.95904 6.90251 5.62839C6.23323 6.29774 5.70234 7.09236 5.34015 7.96688C4.97797 8.8414 4.79157 9.77869 4.79162 10.7252C4.79167 11.6718 4.97815 12.6091 5.34042 13.4836C5.7027 14.358 6.23367 15.1526 6.90301 15.8219L8.39101 17.2899C9.20901 18.0909 10.239 19.0909 11.479 20.2899C11.6188 20.4249 11.8056 20.5004 12 20.5004C12.1944 20.5004 12.3812 20.4249 12.521 20.2899L15.916 16.9899C16.386 16.5289 16.779 16.1399 17.096 15.8219C18.4475 14.4703 19.2068 12.6372 19.2068 10.7259C19.2068 8.81453 18.4475 6.98146 17.096 5.62989M12 7.99889C12.3942 7.99889 12.7846 8.07654 13.1488 8.2274C13.5131 8.37827 13.844 8.5994 14.1227 8.87816C14.4015 9.15692 14.6226 9.48786 14.7735 9.85208C14.9244 10.2163 15.002 10.6067 15.002 11.0009C15.002 11.3951 14.9244 11.7855 14.7735 12.1497C14.6226 12.5139 14.4015 12.8449 14.1227 13.1236C13.844 13.4024 13.5131 13.6235 13.1488 13.7744C12.7846 13.9252 12.3942 14.0029 12 14.0029C11.2135 13.9885 10.464 13.666 9.91278 13.1047C9.36161 12.5433 9.0528 11.7881 9.0528 11.0014C9.0528 10.2147 9.36161 9.45944 9.91278 8.89812C10.464 8.33679 11.2135 8.01425 12 7.99989M12 9.49989C11.6017 9.49989 11.2196 9.65814 10.9379 9.93982C10.6563 10.2215 10.498 10.6035 10.498 11.0019C10.498 11.4002 10.6563 11.7823 10.9379 12.064C11.2196 12.3456 11.6017 12.5039 12 12.5039C12.3915 12.4938 12.7636 12.3312 13.037 12.0507C13.3103 11.7702 13.4633 11.394 13.4633 11.0024C13.4633 10.6107 13.3103 10.2346 13.037 9.95411C12.7636 9.67362 12.3915 9.511 12 9.50089" fill="#3C5A5D"/>
</svg>
