<svg width="20" height="20" viewBox="0 0 20 20" fill="none" xmlns="http://www.w3.org/2000/svg">
<path d="M6.96 16.8683C7.32263 17.3268 7.78471 17.697 8.31134 17.9508C8.83798 18.2046 9.4154 18.3354 10 18.3333C10.5846 18.3354 11.162 18.2046 11.6887 17.9508C12.2153 17.697 12.6774 17.3268 13.04 16.8683C11.0226 17.1418 8.97744 17.1418 6.96 16.8683ZM15.625 7.49996V8.08663C15.625 8.79079 15.825 9.47913 16.2017 10.065L17.125 11.5008C17.9675 12.8125 17.3242 14.595 15.8583 15.0091C12.0281 16.0941 7.97187 16.0941 4.14167 15.0091C2.67583 14.595 2.0325 12.8125 2.875 11.5008L3.79833 10.065C4.17631 9.47442 4.37676 8.78777 4.37583 8.08663V7.49996C4.37583 4.27829 6.89417 1.66663 10 1.66663C13.1058 1.66663 15.625 4.27829 15.625 7.49996Z" fill="#0C1415"/>
</svg>
