<svg width="20" height="20" viewBox="0 0 20 20" fill="none" xmlns="http://www.w3.org/2000/svg">
<path fill-rule="evenodd" clip-rule="evenodd" d="M7.09333 3.69152C7.21923 3.58385 7.38273 3.53056 7.54789 3.54338C7.71306 3.55619 7.86638 3.63405 7.97417 3.75985L12.9742 9.59319C13.0712 9.70645 13.1246 9.85069 13.1246 9.99985C13.1246 10.149 13.0712 10.2933 12.9742 10.4065L7.97417 16.2399C7.8646 16.3595 7.71279 16.4319 7.55085 16.4416C7.3889 16.4514 7.2295 16.3978 7.10635 16.2922C6.9832 16.1866 6.90594 16.0372 6.89092 15.8756C6.87589 15.7141 6.92427 15.553 7.02583 15.4265L11.6767 9.99985L7.02583 4.57319C6.91796 4.4475 6.86439 4.28413 6.87689 4.11897C6.88939 3.95382 6.96694 3.80037 7.0925 3.69235" fill="#3C5A5D"/>
</svg>
