<svg width="24" height="24" viewBox="0 0 24 24" fill="none" xmlns="http://www.w3.org/2000/svg">
<path d="M7.639 17.0633C7.56942 16.9922 7.48637 16.9355 7.39469 16.8968C7.30301 16.858 7.20453 16.8379 7.10499 16.8376C7.00545 16.8373 6.90685 16.8568 6.81493 16.895C6.723 16.9332 6.6396 16.9893 6.56958 17.06C6.49957 17.1308 6.44433 17.2147 6.4071 17.3071C6.36987 17.3994 6.35138 17.4982 6.35273 17.5977C6.35407 17.6972 6.37521 17.7955 6.41492 17.8868C6.45462 17.9781 6.5121 18.0605 6.584 18.1293L7.639 17.0633ZM13.116 10.8833C12.8818 10.649 12.7503 10.3312 12.7503 9.99984C12.7503 9.66851 12.8818 9.35073 13.116 9.11634L12.056 8.05634C11.5403 8.57206 11.2506 9.27152 11.2506 10.0008C11.2506 10.7302 11.5403 11.4296 12.056 11.9453L13.116 10.8833ZM14.884 10.8833C14.7679 10.9995 14.6301 11.0916 14.4784 11.1544C14.3268 11.2172 14.1642 11.2496 14 11.2496C13.8358 11.2496 13.6732 11.2172 13.5216 11.1544C13.3699 11.0916 13.2321 10.9995 13.116 10.8833L12.056 11.9453C12.5717 12.461 13.2712 12.7508 14.0005 12.7508C14.7298 12.7508 15.4293 12.461 15.945 11.9453L14.884 10.8833ZM14.884 9.11634C15.0001 9.23242 15.0922 9.37023 15.1551 9.52191C15.2179 9.67359 15.2502 9.83616 15.2502 10.0003C15.2502 10.1645 15.2179 10.3271 15.1551 10.4788C15.0922 10.6305 15.0001 10.7673 14.884 10.8833L15.944 11.9443C16.4597 11.4286 16.7494 10.7292 16.7494 9.99984C16.7494 9.27052 16.4597 8.57106 15.944 8.05534L14.884 9.11634ZM15.944 8.05534C15.4283 7.53965 14.7288 7.25093 13.9995 7.25093C13.2702 7.25093 12.5717 7.54064 12.056 8.05634L13.116 9.11634C13.2321 9.00024 13.3699 8.90813 13.5216 8.84529C13.6732 8.78245 13.8358 8.75011 14 8.75011C14.1642 8.75011 14.3268 8.78245 14.4784 8.84529C14.6301 8.90813 14.7679 9.00024 14.884 9.11634L15.944 8.05534ZM18.447 5.55334C19.6016 6.70799 20.2502 8.27398 20.2502 9.90684C20.2502 11.5397 19.6016 13.1057 18.447 14.2603L19.507 15.3203C20.9425 13.8844 21.7489 11.9372 21.7489 9.90684C21.7489 7.87648 20.9425 5.92924 19.507 4.49334L18.447 5.55334ZM19.507 4.49334C18.0711 3.05757 16.1236 2.25098 14.093 2.25098C12.0624 2.25098 10.1149 3.05757 8.679 4.49334L9.739 5.55334C10.3107 4.98151 10.9895 4.5279 11.7366 4.21842C12.4837 3.90894 13.2844 3.74966 14.093 3.74966C14.9016 3.74966 15.7023 3.90894 16.4494 4.21842C17.1965 4.5279 17.8753 4.98151 18.447 5.55334L19.507 4.49334ZM6.615 12.1383L2.903 15.8503L3.963 16.9103L7.677 13.2003L6.615 12.1383ZM8.15 21.0973L9.39 19.8573L8.33 18.7963L7.09 20.0363L8.15 21.0973ZM9.39 19.8573L11.862 17.3853L10.802 16.3243L8.33 18.7963L9.39 19.8573ZM2.264 17.6733L2.496 19.7623L3.986 19.5963L3.754 17.5083L2.264 17.6733ZM4.238 21.5043L6.327 21.7363L6.492 20.2463L4.404 20.0143L4.238 21.5043ZM2.994 20.7983L3.202 21.0063L4.262 19.9463L4.054 19.7373L2.994 20.7983ZM4.404 20.0143C4.35065 20.0083 4.29994 19.9843 4.262 19.9463L3.202 21.0063C3.481 21.2863 3.846 21.4613 4.238 21.5043L4.404 20.0143ZM2.496 19.7623C2.539 20.1543 2.715 20.5193 2.994 20.7983L4.054 19.7383C4.01618 19.7 3.99155 19.6499 3.986 19.5963L2.496 19.7623ZM7.09 20.0363C7.01263 20.1139 6.91779 20.173 6.81444 20.2094C6.71109 20.2458 6.60089 20.2584 6.492 20.2463L6.327 21.7363C6.65941 21.7732 6.99585 21.7348 7.31141 21.624C7.62697 21.5132 7.91358 21.3339 8.15 21.0973L7.09 20.0363ZM2.903 15.8503C2.66645 16.0868 2.4861 16.3734 2.37532 16.6889C2.26453 17.0045 2.22715 17.3409 2.264 17.6733L3.754 17.5083C3.74196 17.3995 3.75459 17.2892 3.79094 17.1859C3.8273 17.0826 3.88644 16.9887 3.964 16.9113L2.903 15.8503ZM8.131 11.4453C7.86309 10.4082 7.87061 9.31899 8.15281 8.28561C8.43501 7.25222 8.98112 6.31041 9.739 5.55334L8.68 4.49334C7.7378 5.43456 7.05752 6.60536 6.70641 7.89002C6.35529 9.17469 6.3455 10.5287 6.678 11.8183L8.131 11.4453ZM18.447 14.2603C17.69 15.0183 16.7482 15.5656 15.7148 15.8479C14.6815 16.1303 13.5923 16.138 12.555 15.8703L12.182 17.3223C13.4715 17.655 14.8255 17.6453 16.1102 17.2944C17.3948 16.9435 18.5657 16.2634 19.507 15.3213L18.447 14.2603ZM11.862 17.3853C11.918 17.3303 12.032 17.2843 12.182 17.3223L12.555 15.8703C11.967 15.7203 11.285 15.8413 10.802 16.3243L11.862 17.3853ZM7.677 13.2003C8.16 12.7173 8.282 12.0343 8.131 11.4463L6.678 11.8193C6.716 11.9693 6.671 12.0833 6.615 12.1393L7.677 13.2003ZM9.387 18.7943L7.638 17.0643L6.584 18.1293L8.333 19.8603L9.387 18.7943Z" fill="#3C5A5D"/>
</svg>
