<svg width="48" height="48" viewBox="0 0 48 48" fill="none" xmlns="http://www.w3.org/2000/svg">
<g clip-path="url(#clip0_3_282)">
<path d="M24 26C28.792 26 33.15 27.388 36.356 29.344C37.956 30.32 39.324 31.472 40.312 32.724C41.284 33.954 42 35.426 42 37C42 38.69 41.178 40.022 39.994 40.972C38.874 41.872 37.396 42.468 35.826 42.884C32.67 43.718 28.458 44 24 44C19.542 44 15.33 43.72 12.174 42.884C10.604 42.468 9.126 41.872 8.006 40.972C6.82 40.02 6 38.69 6 37C6 35.426 6.716 33.954 7.688 32.722C8.676 31.472 10.042 30.322 11.644 29.342C14.85 27.39 19.21 26 24 26ZM24 4C26.6522 4 29.1957 5.05357 31.0711 6.92893C32.9464 8.8043 34 11.3478 34 14C34 16.6522 32.9464 19.1957 31.0711 21.0711C29.1957 22.9464 26.6522 24 24 24C21.3478 24 18.8043 22.9464 16.9289 21.0711C15.0536 19.1957 14 16.6522 14 14C14 11.3478 15.0536 8.8043 16.9289 6.92893C18.8043 5.05357 21.3478 4 24 4Z" fill="#3C5A5D"/>
</g>
<defs>
<clipPath id="clip0_3_282">
<rect width="48" height="48" fill="white"/>
</clipPath>
</defs>
</svg>
