<svg width="13" height="12" viewBox="0 0 13 12" fill="none" xmlns="http://www.w3.org/2000/svg">
<g clip-path="url(#clip0_36_127)">
<path d="M11.1032 4.3488C11.1032 7.58723 6.30152 10.2085 6.09704 10.3168C6.04314 10.3458 5.9829 10.3609 5.9217 10.3609C5.8605 10.3609 5.80026 10.3458 5.74636 10.3168C5.54188 10.2085 0.740204 7.58723 0.740204 4.3488C0.741061 3.58833 1.04353 2.85926 1.58126 2.32153C2.11899 1.7838 2.84807 1.48133 3.60853 1.48047C4.56387 1.48047 5.40031 1.89129 5.9217 2.5857C6.44309 1.89129 7.27953 1.48047 8.23487 1.48047C8.99533 1.48133 9.7244 1.7838 10.2621 2.32153C10.7999 2.85926 11.1023 3.58833 11.1032 4.3488Z" fill="#3C5A5D"/>
</g>
<circle cx="12.4217" cy="0.578292" r="0.578292" fill="white"/>
<defs>
<clipPath id="clip0_36_127">
<rect width="11.8434" height="11.8434" fill="white"/>
</clipPath>
</defs>
</svg>
