<svg width="13" height="13" viewBox="0 0 13 13" fill="none" xmlns="http://www.w3.org/2000/svg">
<g id="ph:heart-light">
<path id="Vector" d="M9.03906 1.72656C7.97266 1.72656 7.04539 2.20746 6.5 3.01336C5.95461 2.20746 5.02734 1.72656 3.96094 1.72656C3.15314 1.7275 2.37871 2.04881 1.80751 2.62001C1.23631 3.19121 0.915003 3.96564 0.914062 4.77344C0.914063 6.25625 1.83828 7.79949 3.66133 9.35949C4.4967 10.0713 5.39907 10.7006 6.35578 11.2384C6.40012 11.2622 6.44967 11.2747 6.5 11.2747C6.55033 11.2747 6.59988 11.2622 6.64422 11.2384C7.60093 10.7006 8.50329 10.0713 9.33867 9.35949C11.1617 7.79949 12.0859 6.25625 12.0859 4.77344C12.085 3.96564 11.7637 3.19121 11.1925 2.62001C10.6213 2.04881 9.84686 1.7275 9.03906 1.72656ZM6.5 10.6189C5.66668 10.138 1.52344 7.60297 1.52344 4.77344C1.52411 4.12718 1.78113 3.50758 2.23811 3.05061C2.69508 2.59363 3.31468 2.33661 3.96094 2.33594C4.99078 2.33594 5.85559 2.8859 6.21816 3.77152C6.24112 3.82741 6.28017 3.8752 6.33035 3.90884C6.38054 3.94248 6.43959 3.96044 6.5 3.96044C6.56041 3.96044 6.61946 3.94248 6.66965 3.90884C6.71983 3.8752 6.75888 3.82741 6.78184 3.77152C7.14441 2.8859 8.00922 2.33594 9.03906 2.33594C9.68532 2.33661 10.3049 2.59363 10.7619 3.05061C11.2189 3.50758 11.4759 4.12718 11.4766 4.77344C11.4766 7.60297 7.33332 10.138 6.5 10.6189Z" fill="#3C5A5D"/>
</g>
</svg>
