<svg width="16" height="16" viewBox="0 0 16 16" fill="none" xmlns="http://www.w3.org/2000/svg">
<path d="M11.7711 3.53601C9.68843 1.48735 6.31177 1.48735 4.2291 3.53601C3.73462 4.0191 3.34171 4.59617 3.07345 5.23328C2.80518 5.8704 2.66699 6.55472 2.66699 7.24601C2.66699 7.9373 2.80518 8.62162 3.07345 9.25874C3.34171 9.89586 3.73462 10.4729 4.2291 10.956L7.99977 14.666L11.7711 10.956C12.2656 10.4729 12.6585 9.89586 12.9268 9.25874C13.195 8.62162 13.3332 7.9373 13.3332 7.24601C13.3332 6.55472 13.195 5.8704 12.9268 5.23328C12.6585 4.59617 12.2656 4.0191 11.7711 3.53601ZM7.99977 8.99934C7.55444 8.99934 7.13644 8.82601 6.8211 8.51134C6.50894 8.19851 6.33362 7.77462 6.33362 7.33268C6.33362 6.89074 6.50894 6.46684 6.8211 6.15401C7.13577 5.83934 7.55444 5.66601 7.99977 5.66601C8.4451 5.66601 8.86377 5.83934 9.17843 6.15401C9.4906 6.46684 9.66592 6.89074 9.66592 7.33268C9.66592 7.77462 9.4906 8.19851 9.17843 8.51134C8.86377 8.82601 8.4451 8.99934 7.99977 8.99934Z" fill="white"/>
</svg>
