<svg width="22" height="22" viewBox="0 0 22 22" fill="none" xmlns="http://www.w3.org/2000/svg">
<path fill-rule="evenodd" clip-rule="evenodd" d="M3.62546 2.0625H18.3746C18.7715 2.0625 19.1355 2.0625 19.4306 2.10192C19.757 2.14592 20.1007 2.24858 20.384 2.53275C20.6681 2.816 20.7708 3.15975 20.8148 3.48608C20.8542 3.78217 20.8542 4.14608 20.8542 4.54208V4.62458C20.8542 5.0215 20.8542 5.38542 20.8148 5.68058C20.7708 6.00692 20.6681 6.35067 20.384 6.63392C20.1154 6.90342 19.7909 7.00975 19.4792 7.05742V11.968C19.4792 13.6528 19.4792 14.9875 19.339 16.0316C19.1941 17.1059 18.8898 17.9758 18.2041 18.6624C17.5175 19.3481 16.6476 19.6524 15.5733 19.7973C14.5283 19.9375 13.1945 19.9375 11.5097 19.9375H10.4904C8.80554 19.9375 7.47087 19.9375 6.42679 19.7973C5.35246 19.6524 4.48254 19.3481 3.79596 18.6624C3.11029 17.9758 2.80596 17.1059 2.66112 16.0316C2.52087 14.9866 2.52087 13.6528 2.52087 11.968V7.05833C2.20921 7.01067 1.88471 6.90433 1.61612 6.63483C1.33196 6.35158 1.22929 6.00783 1.18529 5.6815C1.14587 5.38542 1.14587 5.0215 1.14587 4.6255V4.543C1.14587 4.14608 1.14587 3.78217 1.18529 3.487C1.22929 3.16067 1.33196 2.81692 1.61612 2.53367C1.89937 2.2495 2.24312 2.14683 2.56946 2.10283C2.86554 2.06342 3.22946 2.0625 3.62546 2.0625ZM3.89587 7.10508V11.9167C3.89587 13.6648 3.89771 14.9068 4.02421 15.8492C4.14796 16.7704 4.38079 17.3021 4.76854 17.6898C5.15629 18.0776 5.68796 18.3104 6.61012 18.4342C7.55246 18.5607 8.79362 18.5625 10.5417 18.5625H11.4584C13.2065 18.5625 14.4485 18.5607 15.3909 18.4342C16.3121 18.3104 16.8438 18.0776 17.2315 17.6898C17.6193 17.3021 17.8521 16.7704 17.9759 15.8482C18.1024 14.9068 18.1042 13.6648 18.1042 11.9167V7.10417L3.89587 7.10508ZM2.58779 3.50442L2.59054 3.5035C2.64274 3.48372 2.69727 3.47078 2.75279 3.465C2.94529 3.43933 3.21479 3.4375 3.66671 3.4375H18.3334C18.7853 3.4375 19.0548 3.43933 19.2473 3.465C19.3028 3.47076 19.3573 3.4837 19.4095 3.5035L19.4123 3.50442L19.4132 3.50717C19.433 3.55935 19.446 3.61389 19.4517 3.66942C19.4774 3.86192 19.4792 4.13142 19.4792 4.58333C19.4792 5.03525 19.4774 5.30475 19.4517 5.49725C19.446 5.55277 19.433 5.60731 19.4132 5.6595L19.4123 5.66225L19.4095 5.66317C19.3573 5.68296 19.3028 5.6959 19.2473 5.70167C19.0548 5.72733 18.7853 5.72917 18.3334 5.72917H3.66671C3.21479 5.72917 2.94529 5.72733 2.75279 5.70167C2.69727 5.69588 2.64274 5.68294 2.59054 5.66317L2.58779 5.66225L2.58687 5.6595C2.5671 5.6073 2.55416 5.55277 2.54837 5.49725C2.52271 5.30475 2.52087 5.03525 2.52087 4.58333C2.52087 4.13142 2.52271 3.86192 2.54837 3.66942C2.55416 3.6139 2.5671 3.55936 2.58687 3.50717L2.58779 3.50442ZM13.75 9.57092C13.8858 9.69232 13.9678 9.86263 13.9781 10.0445C13.9885 10.2263 13.9262 10.4048 13.805 10.5407L10.5316 14.2074C10.4671 14.2797 10.3881 14.3375 10.2997 14.377C10.2113 14.4166 10.1156 14.4371 10.0187 14.4371C9.92191 14.4371 9.82616 14.4166 9.73777 14.377C9.64939 14.3375 9.57036 14.2797 9.50587 14.2074L8.19687 12.7408C8.13222 12.6743 8.0817 12.5954 8.04833 12.5088C8.01497 12.4223 7.99946 12.3299 8.00274 12.2372C8.00602 12.1445 8.02802 12.0534 8.06742 11.9695C8.10682 11.8855 8.16279 11.8104 8.23198 11.7486C8.30117 11.6869 8.38214 11.6397 8.47002 11.6101C8.5579 11.5804 8.65087 11.5689 8.74334 11.5761C8.8358 11.5833 8.92585 11.6092 9.00806 11.6521C9.09027 11.695 9.16294 11.7542 9.22171 11.8259L10.0192 12.7178L12.7784 9.625C12.8998 9.48925 13.0701 9.40721 13.2519 9.3969C13.4337 9.38659 13.6122 9.44884 13.7482 9.57" fill="#3C5A5D"/>
</svg>
