<svg width="22" height="22" viewBox="0 0 22 22" fill="none" xmlns="http://www.w3.org/2000/svg">
<path fill-rule="evenodd" clip-rule="evenodd" d="M11 1.14551C10.4455 1.14551 9.93487 1.28301 9.37662 1.51401C8.83671 1.73767 8.20971 2.06676 7.42962 2.47651L5.53396 3.47109C4.57604 3.97342 3.81062 4.37584 3.21754 4.77092C2.60521 5.18067 2.13221 5.61151 1.78846 6.19542C1.44562 6.77751 1.29162 7.40817 1.21737 8.15892C1.14587 8.88767 1.14587 9.78326 1.14587 10.9108V11.0886C1.14587 12.2161 1.14587 13.1117 1.21737 13.8404C1.29162 14.5921 1.44654 15.2218 1.78846 15.8039C2.13221 16.3878 2.60429 16.8187 3.21846 17.2284C3.80971 17.6235 4.57604 18.0259 5.53396 18.5283L7.42962 19.5228C8.20971 19.9326 8.83671 20.2617 9.37662 20.4853C9.93579 20.7163 10.4455 20.8538 11 20.8538C11.5546 20.8538 12.0652 20.7163 12.6235 20.4853C13.1634 20.2617 13.7904 19.9326 14.5705 19.5228L16.4661 18.5292C17.424 18.0259 18.1895 17.6235 18.7816 17.2284C19.3958 16.8187 19.8679 16.3878 20.2116 15.8039C20.5545 15.2218 20.7085 14.5912 20.7827 13.8404C20.8542 13.1117 20.8542 12.2161 20.8542 11.0895V10.9098C20.8542 9.78326 20.8542 8.88767 20.7827 8.15892C20.7085 7.40726 20.5535 6.77751 20.2116 6.19542C19.8679 5.61151 19.3958 5.18067 18.7816 4.77092C18.1904 4.37584 17.424 3.97342 16.4661 3.47109L14.5705 2.47651C13.7904 2.06676 13.1634 1.73767 12.6235 1.51401C12.0643 1.28301 11.5546 1.14551 11 1.14551ZM8.03921 3.70851C8.85504 3.28042 9.42704 2.98159 9.90187 2.78542C10.3639 2.59384 10.6893 2.52051 11 2.52051C11.3117 2.52051 11.6362 2.59384 12.0982 2.78542C12.573 2.98159 13.1441 3.28042 13.96 3.70851L15.7933 4.67101C16.7925 5.19442 17.4937 5.56384 18.019 5.91401C18.2775 6.08726 18.48 6.24767 18.645 6.40901L15.5916 7.93526L7.79996 3.83409L8.03921 3.70851ZM6.36629 4.58667L6.20679 4.67101C5.20762 5.19442 4.50637 5.56384 3.98204 5.91401C3.75831 6.05905 3.5487 6.22477 3.35596 6.40901L11 10.2315L14.0773 8.69151L6.55512 4.73334C6.48409 4.69587 6.42017 4.64623 6.36629 4.58667ZM2.69321 7.61442C2.64737 7.81059 2.61162 8.03334 2.58596 8.29276C2.52179 8.94726 2.52087 9.77501 2.52087 10.9456V11.0528C2.52087 12.2243 2.52087 13.0521 2.58596 13.7057C2.64921 14.3446 2.76929 14.758 2.97371 15.1063C3.17721 15.4519 3.47146 15.7443 3.98204 16.0853C4.50637 16.4355 5.20762 16.8049 6.20679 17.3283L8.04012 18.2908C8.85596 18.7189 9.42704 19.0178 9.90187 19.2139C10.0522 19.2763 10.187 19.3258 10.3125 19.3652V11.4241L2.69321 7.61442ZM11.6875 19.3643C11.8131 19.3258 11.9479 19.2763 12.0982 19.2139C12.573 19.0178 13.1441 18.7189 13.96 18.2908L15.7933 17.3283C16.7925 16.804 17.4937 16.4355 18.019 16.0853C18.5286 15.7443 18.8229 15.4519 19.0273 15.1063C19.2317 14.758 19.3509 14.3455 19.4141 13.7057C19.4783 13.0521 19.4792 12.2243 19.4792 11.0538V10.9465C19.4792 9.77501 19.4792 8.94726 19.4141 8.29367C19.3935 8.06543 19.3577 7.83882 19.3069 7.61534L16.2709 9.13242V11.9163C16.2709 12.0987 16.1984 12.2735 16.0695 12.4025C15.9406 12.5314 15.7657 12.6038 15.5834 12.6038C15.401 12.6038 15.2262 12.5314 15.0972 12.4025C14.9683 12.2735 14.8959 12.0987 14.8959 11.9163V9.82084L11.6875 11.425V19.3643Z" fill="#3C5A5D"/>
</svg>
