<svg width="22" height="22" viewBox="0 0 22 22" fill="none" xmlns="http://www.w3.org/2000/svg">
<path d="M3.89587 2.75C3.34887 2.75 2.82426 2.9673 2.43747 3.35409C2.05067 3.74089 1.83337 4.26549 1.83337 4.8125V15.8125C1.83341 16.3262 2.02512 16.8213 2.37098 17.2011C2.71684 17.5808 3.19196 17.8179 3.70337 17.8658C3.80894 18.5085 4.13916 19.0928 4.63525 19.5148C5.13134 19.9368 5.76109 20.169 6.41236 20.1701C7.06364 20.1712 7.69417 19.9411 8.19168 19.5208C8.68919 19.1005 9.02139 18.5173 9.12912 17.875H11.0376C11.1449 18.5169 11.4762 19.1 11.9729 19.5205C12.4695 19.9411 13.0992 20.1719 13.75 20.1719C14.4008 20.1719 15.0305 19.9411 15.5272 19.5205C16.0238 19.1 16.3552 18.5169 16.4625 17.875H18.1042C18.3751 17.875 18.6433 17.8217 18.8935 17.718C19.1437 17.6144 19.3711 17.4624 19.5626 17.2709C19.7541 17.0794 19.9061 16.852 20.0097 16.6018C20.1134 16.3516 20.1667 16.0834 20.1667 15.8125V10.8506C20.1666 10.5452 20.0986 10.2437 19.9678 9.96783L18.4104 6.67975C18.2433 6.32688 17.9794 6.02868 17.6495 5.81984C17.3196 5.611 16.9372 5.50009 16.5468 5.5H15.125V4.8125C15.125 4.26549 14.9077 3.74089 14.5209 3.35409C14.1342 2.9673 13.6095 2.75 13.0625 2.75H3.89587ZM16.3442 16.5C16.1249 15.8821 15.6927 15.3625 15.125 15.0342V11.4583H18.7917V14.2083H17.6459C17.4635 14.2083 17.2887 14.2808 17.1597 14.4097C17.0308 14.5386 16.9584 14.7135 16.9584 14.8958C16.9584 15.0782 17.0308 15.253 17.1597 15.382C17.2887 15.5109 17.4635 15.5833 17.6459 15.5833H18.7917V15.8125C18.7917 15.9948 18.7193 16.1697 18.5903 16.2986C18.4614 16.4276 18.2865 16.5 18.1042 16.5H16.3442ZM13.75 14.6667C13.1811 14.6665 12.6262 14.8427 12.1616 15.1711C11.697 15.4994 11.3456 15.9637 11.1559 16.5H9.01087C8.82149 15.9638 8.47056 15.4994 8.00639 15.1708C7.54222 14.8422 6.98762 14.6656 6.41892 14.6652C5.85022 14.6648 5.29537 14.8406 4.83074 15.1686C4.3661 15.4965 4.01452 15.9604 3.82437 16.4963C3.65533 16.4787 3.49882 16.399 3.38506 16.2727C3.27131 16.1464 3.20836 15.9825 3.20837 15.8125V4.8125C3.20837 4.63016 3.28081 4.4553 3.40974 4.32636C3.53867 4.19743 3.71354 4.125 3.89587 4.125H13.0625C13.2449 4.125 13.4197 4.19743 13.5487 4.32636C13.6776 4.4553 13.75 4.63016 13.75 4.8125V14.6667ZM15.125 6.875H16.5459C16.6762 6.8748 16.804 6.91166 16.9142 6.98129C17.0244 7.05091 17.1125 7.15044 17.1683 7.26825L18.5011 10.0833H15.125V6.875ZM6.41671 18.7917C6.05203 18.7917 5.7023 18.6468 5.44444 18.3889C5.18657 18.1311 5.04171 17.7813 5.04171 17.4167C5.04171 17.052 5.18657 16.7023 5.44444 16.4444C5.7023 16.1865 6.05203 16.0417 6.41671 16.0417C6.78138 16.0417 7.13112 16.1865 7.38898 16.4444C7.64684 16.7023 7.79171 17.052 7.79171 17.4167C7.79171 17.7813 7.64684 18.1311 7.38898 18.3889C7.13112 18.6468 6.78138 18.7917 6.41671 18.7917ZM15.125 17.4167C15.125 17.7813 14.9802 18.1311 14.7223 18.3889C14.4644 18.6468 14.1147 18.7917 13.75 18.7917C13.3854 18.7917 13.0356 18.6468 12.7778 18.3889C12.5199 18.1311 12.375 17.7813 12.375 17.4167C12.375 17.052 12.5199 16.7023 12.7778 16.4444C13.0356 16.1865 13.3854 16.0417 13.75 16.0417C14.1147 16.0417 14.4644 16.1865 14.7223 16.4444C14.9802 16.7023 15.125 17.052 15.125 17.4167Z" fill="#3C5A5D"/>
</svg>
