<svg width="22" height="22" viewBox="0 0 22 22" fill="none" xmlns="http://www.w3.org/2000/svg">
<path d="M14.6667 3.66797C16.6604 3.67897 17.7403 3.76789 18.4443 4.47189C19.25 5.27764 19.25 6.5738 19.25 9.16614V14.6661C19.25 17.2594 19.25 18.5556 18.4443 19.3613C17.6394 20.1661 16.3423 20.1661 13.75 20.1661H8.25C5.65767 20.1661 4.36058 20.1661 3.55575 19.3613C2.75 18.5546 2.75 17.2594 2.75 14.6661V9.16614C2.75 6.5738 2.75 5.27764 3.55575 4.47189C4.25975 3.76789 5.33958 3.67897 7.33333 3.66797" stroke="#3C5A5D" stroke-width="1.5"/>
<path d="M6.41663 13.291H13.75M6.41663 16.4993H11.4583" stroke="#3C5A5D" stroke-width="1.5" stroke-linecap="round"/>
<path d="M7.33337 3.20801C7.33337 2.84334 7.47824 2.4936 7.7361 2.23574C7.99396 1.97787 8.3437 1.83301 8.70837 1.83301H13.2917C13.6564 1.83301 14.0061 1.97787 14.264 2.23574C14.5218 2.4936 14.6667 2.84334 14.6667 3.20801V4.12467C14.6667 4.48935 14.5218 4.83908 14.264 5.09695C14.0061 5.35481 13.6564 5.49967 13.2917 5.49967H8.70837C8.3437 5.49967 7.99396 5.35481 7.7361 5.09695C7.47824 4.83908 7.33337 4.48935 7.33337 4.12467V3.20801Z" stroke="#3C5A5D" stroke-width="1.5"/>
</svg>
