<svg width="30" height="30" viewBox="0 0 30 30" fill="none" xmlns="http://www.w3.org/2000/svg">
<path d="M8.75001 15V16.25H21.25V15C21.25 14.007 21.6439 13.0544 22.3453 12.3514C23.0466 11.6484 23.9982 11.2523 24.9913 11.25C24.9899 10.9231 24.9606 10.5969 24.9038 10.275C24.7109 9.30501 24.2346 8.41401 23.5353 7.71469C22.836 7.01537 21.945 6.53915 20.975 6.34625C20.4925 6.25 19.9125 6.25 18.75 6.25H11.25C10.0875 6.25 9.50751 6.25 9.02501 6.34625C8.05502 6.53915 7.16402 7.01537 6.4647 7.71469C5.76538 8.41401 5.28916 9.30501 5.09626 10.275C5.03936 10.5969 5.01008 10.9231 5.00876 11.25C6.0018 11.2523 6.95338 11.6484 7.65475 12.3514C8.35612 13.0544 8.75001 14.007 8.75001 15Z" fill="#3C5A5D"/>
<path d="M23.055 22.5H6.945C6.60589 22.5001 6.26788 22.4615 5.9375 22.385V23.75C5.9375 23.9986 5.83873 24.2371 5.66292 24.4129C5.4871 24.5887 5.24864 24.6875 5 24.6875C4.75136 24.6875 4.51291 24.5887 4.33709 24.4129C4.16127 24.2371 4.0625 23.9986 4.0625 23.75V21.4387C3.57213 21.0219 3.17837 20.5033 2.90855 19.919C2.63873 19.3347 2.49932 18.6986 2.5 18.055V15C2.5 14.337 2.76339 13.7011 3.23224 13.2322C3.70108 12.7634 4.33696 12.5 5 12.5C5.66304 12.5 6.29893 12.7634 6.76777 13.2322C7.23661 13.7011 7.5 14.337 7.5 15V16.5C7.5 16.7652 7.60536 17.0196 7.7929 17.2071C7.98043 17.3946 8.23479 17.5 8.5 17.5H21.5C21.7652 17.5 22.0196 17.3946 22.2071 17.2071C22.3946 17.0196 22.5 16.7652 22.5 16.5V15C22.5 14.337 22.7634 13.7011 23.2322 13.2322C23.7011 12.7634 24.337 12.5 25 12.5C25.663 12.5 26.2989 12.7634 26.7678 13.2322C27.2366 13.7011 27.5 14.337 27.5 15V18.055C27.5007 18.6986 27.3613 19.3347 27.0915 19.919C26.8216 20.5033 26.4279 21.0219 25.9375 21.4387V23.75C25.9375 23.9986 25.8387 24.2371 25.6629 24.4129C25.4871 24.5887 25.2486 24.6875 25 24.6875C24.7514 24.6875 24.5129 24.5887 24.3371 24.4129C24.1613 24.2371 24.0625 23.9986 24.0625 23.75V22.385C23.7321 22.4615 23.3941 22.5001 23.055 22.5Z" fill="#3C5A5D"/>
</svg>
